<?xml version="1.0" encoding="UTF-8"?>
<svg id="Layer_1" data-name="Layer 1" xmlns="http://www.w3.org/2000/svg" xmlns:xlink="http://www.w3.org/1999/xlink" viewBox="0 0 256 256">
  <defs>
    <style>
      .cls-1 {
        fill: #fff;
      }

      .cls-1, .cls-2 {
        stroke: #fff;
        stroke-miterlimit: 10;
      }

      .cls-3 {
        fill: url(#radial-gradient);
      }

      .cls-2 {
        stroke-width: .5px;
      }
    </style>
    <radialGradient id="radial-gradient" cx="128" cy="128" fx="128" fy="128" r="128" gradientUnits="userSpaceOnUse">
      <stop offset="0" stop-color="#ffd200"/>
      <stop offset=".06" stop-color="#fdc903"/>
      <stop offset=".32" stop-color="#f9a70f"/>
      <stop offset=".57" stop-color="#f68f18"/>
      <stop offset=".81" stop-color="#f4811e"/>
      <stop offset="1" stop-color="#f47c20"/>
    </radialGradient>
  </defs>
  <circle class="cls-3" cx="128" cy="128" r="128"/>
  <path class="cls-2" d="M135.42,51.39c-.07-.05-1.49,3.27-5.03,6.97-5.56,5.82-12.4,8.44-17.68,9.73-8.49.86-16.97,1.73-25.46,2.59-2.21.17-6.48.82-10.7,3.73-1.99,1.37-4.85,3.35-6.16,6.97-2.18,6.04,1.71,11.83,2.27,12.65-3.89,1.93-8.82,4.9-13.78,9.41-3.85,3.5-11.86,10.96-15.73,23.41-1.01,3.25-2.69,8.68-2.11,15.84.55,6.75,2.82,11.54,4.7,15.41,4.63,9.53,10.63,15.31,15.59,20.08,2.44,2.35,9.07,8.49,18.64,13.91,5.12,2.91,9.56,4.74,11.37,5.46,1.86.74,4.8,1.82,8.48,2.91,3.93,1.17,6.78,1.71,9.71,2.26,0,0,3.55.66,9.38.79,1.55.03,3.3.02,3.53-.66.17-.51-.56-1.23-1.3-1.78-4.46-3.33-14.5-6.27-19.14-10.38-3.16-2.8-4.17-6.02-6-11.84-2.78-8.83-2.17-16.73-1.3-21.73-5.13-1-7.77-3.08-9.24-4.86-1.91-2.32-3.88-6.6-4.04-6.95,0,0-.01-.02-.01-.02.07-.08,4.88,6.67,11.51,8.11,2.94.64,2.79-.52,6.16,0,5.75.89,6.69,4.34,12.16,5.84,4.73,1.3,8.83.04,9.89-.32,3.87-1.31,10.01-5.04,10.05-10.54.02-2.68-1.41-4.78-2.27-5.84-2.02-2.28-4.77-5.83-6.97-10.7-2.29-5.07-2.21-7.65-4.38-14.59-1.7-5.44-3.22-10.32-6-14.59-2.15-3.31-6.92-9.14-17.35-13.14.05-.65.11-1.3.16-1.95,5.54-1.12,12.84-3.39,19.95-8.43,14.78-10.48,21.25-27.63,21.08-27.73Z"/>
  <path class="cls-1" d="M97.09,111.45c.73-.93,4.67.68,7.41,2.76,2.85,2.16,5.54,5.69,4.81,6.65-.74.98-5.08-.66-8.11-3.19-2.46-2.05-4.82-5.31-4.11-6.22Z"/>
  <path class="cls-2" d="M141.31,112.48c-.21,2.59-3.89,3.4-8.97,6.68-4.18,2.7-8.99,5.81-9.12,9.77-.05,1.5,1.31,3.41,4.04,7.22,2.88,4.03,4.37,6.07,6.7,7.14,1.19.54,3.26.69,7.35.97,7.04.48,6.95.06,9.08.54,1.54.35,6.48,1.43,9.62,5.62,2.45,3.27,2.69,6.74,2.81,8.86.54,9.72-5.2,17.37-6.05,18.49-7.76,10.07-27.31,21.28-30.49,24.11-.22.19-.61.57-.52.91.25.96,4.21.72,5.6.63,15.89-.99,25.35-4.57,25.35-4.57,24.85-9.39,39.82-27.42,39.82-27.42,6.48-7.8,17.14-20.64,18.34-39.61.38-5.99,1.21-19.27-7.84-31.03-6.71-8.72-15.53-12.26-19.68-13.62,1.1-6.38-3.32-12.08-8.65-12.76-5.7-.72-11.73,4.39-11.57,11.35-5.35,2.63-9.63,5.23-12.76,7.3-3.36,2.22-5.91,4.6-11.03,9.35-1.47,1.37-3.3,3.12-3.35,5.51-.05,2.19,1.44,2.84,1.3,4.54Z"/>
  <path class="cls-1" d="M158.81,115.53c.62-1.81-2.1-5.01-5.35-5.8-.41-.1-3.78-.86-5.96,1.34-2.55,2.57-1.83,7.53.16,8.59.77.41,1.3.02,6.41-1.86,3.84-1.41,4.5-1.54,4.74-2.27Z"/>
</svg>